<?xml version="1.0" encoding="utf-8"?>
<!-- Generator: Adobe Illustrator 16.0.3, SVG Export Plug-In . SVG Version: 6.00 Build 0)  -->
<!DOCTYPE svg PUBLIC "-//W3C//DTD SVG 1.1//EN" "http://www.w3.org/Graphics/SVG/1.1/DTD/svg11.dtd">
<svg version="1.1" id="Capa_1" xmlns="http://www.w3.org/2000/svg" xmlns:xlink="http://www.w3.org/1999/xlink" x="0px" y="0px"
	 width="462.534px" height="139.579px" viewBox="0 0 462.534 139.579" enable-background="new 0 0 462.534 139.579"
	 xml:space="preserve">
<g>
	<path fill-rule="evenodd" clip-rule="evenodd" fill="#D7E7E5" d="M1.34,61.661c-2.143-5.987-2.226-11.478,3.588-16.154
		c3.202-2.576,6.221-5.527,8.606-9.057c3.244-4.803,12.115-6.021,16.035-2.339c4.705,4.419,10.536,4.715,16.176,4.209
		c7.193-0.646,14.219-3.328,21.586-1.406c-1.688,2.436-4.069,4.362-5.267,7.161c-3.302,7.438-1.505,14.006,6.654,20.114
		c1.122,0.839,1.628,2.527,3.386,2.496c0.371,0.374,0.563,0.973,1.227,0.98c3.945,4.107,8.967,6.51,14.024,8.859
		c0.938,1.956,3.377,2.699,3.979,4.926c-0.205,3.313-2.548,3.964-5.225,4.202c-1.868-2.572-4.082-4.51-7.469-4.856
		c-3.228-0.33-5.356-3.06-8.269-4.141c-2.876-1.156-4.22,0.775-5.503,2.763c-0.951,1.471-0.707,3.467-2.06,4.772
		c-2.309-1.531-5.062-1.438-7.607-1.873c-6.326-1.082-12.704-1.881-19.081-2.644c-0.582-0.07-1.233-0.212-1.766,0.243
		c-0.953-1.434-2.122-2.521-3.759-3.278c-4.264-1.97-8.205-4.51-12.134-7.095c-3.277-2.157-4.784-5.074-5.103-8.788
		c-0.075-0.871-0.25-1.644-0.567-2.476c-0.42-1.102-1.105-1.127-2.007-1.13c-1.377-0.003-1.099,0.985-1.207,1.823
		c-0.525,4.099,1.097,7.488,3.674,10.426c3.471,3.957,7.966,6.505,12.72,8.621c-1.271,0.557-4.848,0.086-7.321-0.94
		c-6.986-2.899-12.668-7.242-15.946-14.285C2.449,62.243,2.021,61.768,1.34,61.661z"/>
	<path fill-rule="evenodd" clip-rule="evenodd" fill="#FFFFFF" d="M452.784,44.178c0-9.36,0.047-18.721-0.04-28.081
		c-0.017-1.828,0.264-2.493,2.353-2.5c7.437-0.024,7.437-0.132,7.437,7.118c0,10.364,0.002,20.729-0.001,31.093
		c-0.001,4.599-0.78,4.943-5.12,5.456c-5.69,0.672-8.806-1.164-11.063-6.672c-3.362-8.203-8.118-15.814-11.532-24.123
		c1.238,9.1,0.496,18.224,0.78,27.323c0.082,2.635-0.361,3.585-3.313,3.46c-6.486-0.275-6.495-0.074-6.495-6.576
		c0-10.864,0.069-21.729-0.056-32.591c-0.027-2.325,0.468-3.366,2.922-4.03c5.321-1.439,9.103-0.188,11.374,4.688
		C444.026,27.326,448.778,35.538,452.784,44.178z"/>
	<path fill-rule="evenodd" clip-rule="evenodd" fill="#D6B85A" d="M197.816,69.16c-0.33,7.377,2.368,13.456,7.638,18.583
		c2.155,2.097,3.918,4.597,5.861,6.914c-1.807,0.602-1.771,2.493-2.591,3.775c-0.724,1.131-1.11,2.553-2.908,2.224
		c-0.845-0.11-1.684-0.022-2.551-0.177c-2.884-0.516-3.807,0.436-3.757,3.569c-4.042,0.994-7.063-1.477-10.117-3.29
		c-6.933-4.118-12.544-9.818-17.82-15.85c-0.512,0.012-0.762-0.238-0.75-0.75c0-0.84,0-1.68,0-2.52c0-2.693,0-5.388,0-8.08
		c-0.5-3.925,1.833-6.878,3.468-10.069c2.004-0.985,2.854-3.375,5.038-4.145c1.635-1.474,4.072,0.139,5.671-1.473
		c2.768,1.147,5.555,2.249,8.196,3.675C194.786,64.052,197.385,65.948,197.816,69.16z"/>
	<path fill-rule="evenodd" clip-rule="evenodd" fill="#FFFFFF" d="M428.418,73.151c-5.137,7.126-8.811,14.733-14.212,20.912
		c5.703,6.779,9.577,14.758,14.616,22.342c-2.932,0-5.594-0.166-8.225,0.045c-2.742,0.221-4.119-0.832-5.422-3.306
		c-2.564-4.867-5.808-9.373-8.544-14.157c-0.7-1.226-1.363-1.5-2.507-1.292c-1.652,0.299-0.773,1.615-0.789,2.4
		c-0.093,4.743-0.104,9.49-0.013,14.233c0.029,1.514-0.198,2.069-1.951,2.137c-7.834,0.308-7.831,0.387-7.831-7.464
		c0-11.238,0.053-22.476-0.05-33.714c-0.019-1.949,0.449-2.429,2.415-2.437c7.384-0.028,7.384-0.116,7.384,7.159
		c0,2.373-0.142,4.757,0.067,7.112c0.087,0.988-1.179,2.585,0.91,3.024c1.811,0.381,2.716-0.82,3.506-2.085
		c1.859-2.977,4.138-5.808,5.385-9.032C416.094,71.437,422.042,72.659,428.418,73.151z"/>
	<path fill-rule="evenodd" clip-rule="evenodd" fill="#C3DCD8" d="M86.08,85.658c2.783-0.294,5.3-0.898,5.249-4.5
		c3.852,3.645,4.188,8.354,3.545,13.116c-0.365,2.707-3.168,4.163-6.1,4.18c-1.15,0.006-2.296-1.062-3.445-0.048
		c-4.412-0.926-8.732-0.947-13.259-0.125c-4.068,0.738-8.374-0.294-12.003-2.398c-7.079-4.104-14.918-4.779-22.733-5.72
		c-6.29-0.758-12.672-1.057-18.852-2.335c-4.607-0.954-8.407-3.943-10.758-8.211C4.626,73.995,2.769,67.896,1.34,61.661
		c1.37,0.184,1.444,1.486,1.939,2.358c4.996,8.787,12.799,13.254,22.544,14.757c0.055,0.009,0.174-0.402,0.263-0.617
		c2.443,0.785,4.481,3.59,7.499,1.5c10.107,0.779,20.156,1.946,29.997,4.5c0.012,5.441,1.249,6.736,6.623,6.739
		c4.43,0.002,8.781,1.301,13.237,0.76c3.516-0.281,3.908-0.756,2.872-3.854C86.067,87.064,86.161,86.371,86.08,85.658z"/>
	<path fill-rule="evenodd" clip-rule="evenodd" fill="#6FC5AB" d="M185.067,57.912c-1.749,1.503-4.25-0.003-5.999,1.5
		c0-1.871-0.114-3.752,0.028-5.612c0.18-2.338-0.465-3.085-2.916-2.37c-7.002,2.045-13.83,4.567-20.557,7.351
		c-1.229,0.509-2.342,0.646-3.575,0.583c-0.254-7.619-2.071-14.957-4.027-22.267c-0.446-1.666-1.589-2.049-3.137-1.498
		c0.03-0.939,0.03-0.939,2.15-0.935c4.496-0.154,8.771-1.617,13.161-2.384c4.3-0.751,8.54-0.375,12.798-0.623
		c0.709-0.041,1.496,0.267,2.229-0.51c-0.782-3.424-2.799-6.5-3.653-9.981c1.75,0.75,3.5,1.5,5.249,2.25
		c6.236,3.664,12.342,7.512,18.07,11.956c0.955,0.741,1.59,1.935,2.879,2.247c0.225,0.992,1.218,1.361,1.713,2.125
		c0.277,0.427,0.81,1.026-0.332,1.048c-6.311-3.877-13.241-6.192-20.33-8.103c-1.998-0.538-3.306-0.511-2.294,2.248
		c1.579,4.309,1.556,8.949,2.407,13.415c0.364,1.906,1.175,2.44,2.668,2.022c4.516-1.263,9.142-0.331,13.679-0.883
		c-1.522,3.821-5.417,4.826-8.286,7.056C186.367,57.035,185.217,56.792,185.067,57.912z"/>
	<path fill-rule="evenodd" clip-rule="evenodd" fill="#FFFFFF" d="M367.365,81.157c-1.998,0-3.997-0.017-5.995,0.006
		c-1.973,0.022-4.017,0.229-4.536,2.547c-0.588,2.624,1.107,4.083,3.305,4.939c3.129,1.217,6.309,2.302,9.466,3.447
		c8.631,3.13,9.869,8.772,8.736,16.303c-1.213,8.056-5.51,7.977-10.923,8.849c-6.076,0.979-11.904-0.378-17.846-0.772
		c-2.658-0.177-2.635-1.611-2.477-3.444c0.018-0.201,0.454-0.383,0.449-0.567c-0.136-5.183,2.349-4.781,6.33-3.688
		c3.253,0.894,6.986,0.544,10.408,0.055c1.34-0.191,4.057-0.167,3.853-3.32c-0.168-2.596-1.27-3.982-3.521-4.864
		c-4.308-1.688-8.905-2.574-12.89-5.176c-3.233-2.112-4.764-4.878-4.684-8.664c0.053-2.478-0.303-5.026,0.155-7.422
		c0.728-3.81,3.781-5.896,7.251-6.42c6.918-1.046,13.89-0.686,20.788,0.671c2.388,0.47,2.028,2.341,1.716,3.744
		c-0.318,1.431,0.344,3.831-2.467,3.785C372.112,81.125,369.739,81.156,367.365,81.157z"/>
	<path fill-rule="evenodd" clip-rule="evenodd" fill="#FFFFFF" d="M331.299,35.779c0-4.369-0.166-8.747,0.038-13.106
		c0.312-6.659,3.456-8.585,8.84-8.905c6.497-0.387,13.042-0.262,19.548,0.586c1.339,0.174,1.558,0.512,1.603,1.723
		c0.177,4.644-0.87,5.839-5.372,5.839c-3.619,0.001-7.239,0.004-10.859,0.006c-1.631,0.001-2.936,0.439-3.602,2.16
		c-0.834,2.155-0.483,4.35-0.247,6.496c0.077,0.704,1.32,0.314,2.021,0.32c4.243,0.035,8.489,0.088,12.731-0.018
		c1.63-0.041,2.354,0.107,2.366,2.109c0.036,5.426,0.171,5.425-5.38,5.425c-1.873,0-3.75-0.086-5.615,0.023
		c-2.072,0.122-5.245-1.008-5.964,0.449c-1.044,2.116-0.71,5.127-0.334,7.664c0.313,2.108,1.984,3.235,4.413,3.153
		c4.239-0.144,8.487,0.002,12.73-0.053c4.475-0.059,1.923,3.748,2.916,5.578c1.228,2.262-1.205,1.773-2.553,1.951
		c-5.499,0.725-11.019,0.815-16.551,0.738c-6.819-0.096-11.385-3.357-10.787-10.533C331.563,43.541,331.299,39.649,331.299,35.779z"
		/>
	<path fill-rule="evenodd" clip-rule="evenodd" fill="#C1A452" d="M85.33,98.407c0.43-0.196,0.89-0.611,1.285-0.556
		c6.525,0.897,8.661-0.79,8.409-7.198c-0.139-3.493-0.631-7.047-3.695-9.494c-1.25-1.5-2.499-3-3.75-4.5
		c1.694-0.736,2.704-2.741,4.861-2.618c2.916,2.577,5.916,4.966,7.209,8.974c1.786,5.531-0.101,10.378-2.296,15.165
		c-1.534,3.342-2.796,6.783-3.528,10.328c-1.241,6.01,2.338,10.041,6.571,13.473c1.291,1.048,2.728,2.117,4.407,2.643
		c0.432-0.064,0.731,0.106,0.896,0.511c1.898,4.667,7.786,7.607,12.253,6.087c0.599-0.204,0.973-0.755,1.219-1.354
		c0.398,0.017,0.794,0.03,1.191,0.039c3.443-0.306,6.487,2.021,9.96,1.498c1.333,1.928,1.073,3.999-0.185,5.648
		c-1.718,2.255-4.728,2.722-7.094,2.463c-7.8-0.853-15.549-2.08-22.951-5.065c-9.542-3.849-16.627-9.946-18.42-20.397
		c-0.818-4.769,1.175-9.522,3.189-13.954C85.128,99.518,85.326,99.014,85.33,98.407z"/>
	<path fill-rule="evenodd" clip-rule="evenodd" fill="#D6B85A" d="M105.578,124.653c-6.161-2.343-10.937-6.252-11.896-13.021
		c-0.617-4.349,1.612-8.44,3.249-12.471c1.222-3.008,2.635-5.992,3.381-9.125c1.254-5.273-1.856-11.613-6.818-14.833
		c-0.611-0.396-1.279-0.719-1.414-1.542c1.412-0.238,2.863-0.379,3.881-1.583c5.542-0.4,10.13,1.31,13.358,6.032
		c1.318,1.908,2.396,3.902,2.258,6.33c0,1.609,0,3.216,0,4.824c0.439,1.66-0.608,3.079-0.75,4.645
		c-2.282,9.454,0.054,15.958,7.192,22.768c4.614,4.402,10.25,8.122,12.306,14.728c-3.636,0.456-6.862-1.956-10.499-1.5
		c-1.63-5.2-8.5-8.497-13.414-6.406C105.972,123.684,105.654,124.123,105.578,124.653z"/>
	<path fill-rule="evenodd" clip-rule="evenodd" fill="#FFFFFF" d="M304.232,57.924c-3.279-0.089-6.67,0.507-9.786-0.75
		c-5.438-2.195-8.105-6.379-8.999-12.224c-0.734-4.801-0.605-9.559-0.613-14.335c-0.014-8.866,4.392-15.746,11.806-16.788
		c6.081-0.854,12.377-0.669,18.55,0.532c1.761,0.343,1.084,1.415,1.066,2.185c-0.038,1.663-1.056,3.191-0.726,4.954
		c0.277,1.483-0.887,1.038-1.68,1.187c-2.734,0.514-5.231-0.885-7.95-0.825c-7.507,0.165-10.134,2.417-10.553,9.977
		c-0.229,4.147-0.212,8.324,0.635,12.434c0.751,3.646,7.181,6.775,11.673,5.219c2.496-0.864,4.965-0.796,7.249-0.419
		c2.561,0.423,1.786,3.282,2.115,5.175c0.283,1.624-0.131,2.6-2.198,3.011C311.285,57.959,307.768,57.844,304.232,57.924z"/>
	<path fill-rule="evenodd" clip-rule="evenodd" fill="#6FC5AB" d="M146.822,34.665c-0.727,0.319-1.92-0.762-2.25,0.75
		c-5.907,1.099-11.764,2.592-17.852,2.25c-3.347-0.16-6.715,0.347-10.046-0.3c-2.357-3.864-3.537-8.277-5.713-12.241
		c-1.525-2.776-2.84-5.666-4.728-8.231c1.571,0.499,1.198-1.643,2.343-1.725c0.868,1.425,1.923,0.589,3.058,0.389
		c4.084-0.725,8.183-1.558,12.309-1.811c4.375-0.267,8.706-1.376,13.13-0.827c1.325,3.82,4.254,6.789,5.65,10.561
		C144.103,27.202,146.252,30.646,146.822,34.665z"/>
	<path fill-rule="evenodd" clip-rule="evenodd" fill="#C1A452" d="M206.065,100.656c1.99,0.344,2.134-1.471,2.832-2.531
		c0.777-1.179,0.762-2.894,2.417-3.468c3.792,5.085,6.934,10.54,8.98,16.555c1.806,5.311-0.152,8.077-5.811,8.168
		c-8.018,0.128-15.203-2.91-21.934-6.763c-9.775-5.594-16.889-13.627-20.545-24.517c-0.378-1.129-0.233-2.143-0.436-3.193
		c5.258,5.98,10.85,11.595,17.689,15.793c3.092,1.898,6.203,3.836,10.057,3.704c0.384-0.007,0.696,0.143,0.947,0.43
		c1.297,2.469,5.784,5.111,8.188,4.821c2.317-0.28,3.259-1.953,2.244-4.063c-0.891-1.853-2.036-3.469-4.205-3.992
		C206.194,101.355,206.053,101.04,206.065,100.656z"/>
	<path fill-rule="evenodd" clip-rule="evenodd" fill="#48AA8D" d="M146.822,34.665c-1.31-5.685-3.833-10.869-6.589-15.954
		c-1.048-1.934-2.623-3.581-3.159-5.793c12.047,0.457,23.642,2.804,34.496,8.249c1.059,2.932,1.948,5.942,3.25,8.763
		c0.62,1.344,0.726,1.859-0.83,1.717C164.724,30.803,155.839,33.317,146.822,34.665z"/>
	<path fill-rule="evenodd" clip-rule="evenodd" fill="#D6B85B" d="M197.816,37.664c-6.667-5.238-13.603-10.081-20.998-14.248
		c10.855-6.521,22.873-6.46,34.906-6c3.372,0.129,4.388,2.815,3.005,6.003c-3.058,7.051-8.734,11.166-15.413,14.245
		C198.815,37.664,198.316,37.664,197.816,37.664z"/>
	<path fill-rule="evenodd" clip-rule="evenodd" fill="#FFFFFF" d="M331.299,94.556c0,6.484-0.077,12.971,0.048,19.453
		c0.036,1.906-0.384,2.45-2.392,2.457c-7.405,0.025-7.405,0.12-7.405-7.122c0-11.348,0.047-22.697-0.047-34.044
		c-0.016-1.9,0.371-2.45,2.386-2.454c7.41-0.016,7.41-0.113,7.41,7.12C331.299,84.829,331.299,89.692,331.299,94.556z"/>
	<path fill-rule="evenodd" clip-rule="evenodd" fill="#D6B85B" d="M98.828,1.668c1.281-0.526,2.587-1.535,3.837-1.47
		c2.046,0.106,4.537-1.069,6.104,1.305c1.772,2.684,1.854,5.511,0.558,8.414c-2.451-1.748-4.001-0.022-5.587,1.472
		c-1.969,1.854-1.44,3.894-0.371,5.952c-5.159,1.99-10.404,3.759-15.447,6.055c-3.509,1.598-6.909,3.36-9.902,5.824
		c-1.866,0.233-2.935,1.995-4.689,2.445c-1.699-9.918,4.057-15.842,11.249-20.998c3.405,1.539,6.874,2.386,10.482,0.729
		C99.599,9.312,100.682,6.457,98.828,1.668z"/>
	<path fill-rule="evenodd" clip-rule="evenodd" fill="#D09857" d="M153.571,88.658c-4.153,1.926-8.738,2.249-13.118,2.844
		c-5.824,0.792-11.662,2.132-17.628,1.655c0-1.432,0-2.863,0-4.296c-0.33-1.291,0.725-2.822-0.682-3.928
		c-0.083-0.462,0.085-0.798,0.504-1.011c9.977-1.172,19.799-3.136,29.515-5.661C152.047,81.807,152.614,85.258,153.571,88.658z"/>
	<path fill-rule="evenodd" clip-rule="evenodd" fill="#6FC5AB" d="M73.332,31.665c1.743-0.265,2.592-2.315,4.5-2.25
		c0.859,0.053,0.701,0.851,0.968,1.333c1.511,2.724,4.062,5.628,3.891,8.31c-0.191,3.018-4.797,2.971-7.163,4.856
		c-2.44,1.944-4.72,4.151-7.465,5.712c-1.265-2.717-2.132-5.833-5.979-5.962c1.75-2.25,3.5-4.5,5.25-6.75
		C69.332,35.165,71.332,33.415,73.332,31.665z"/>
	<path fill-rule="evenodd" clip-rule="evenodd" fill="#666169" d="M197.816,37.664c0.5,0,1,0,1.5,0
		c5.801,1.764,7.5,3.972,7.499,9.749c0.015,0.721-0.043,1.442,0.06,2.16c-3.646,5.008-9.203,7.875-13.559,12.088
		c-2.75-1.25-5.499-2.5-8.249-3.75c3.5-2.498,7.302-4.575,10.499-7.499c1.992-1.746,4.28-3.137,5.309-5.864
		c0.625-1.659,0.725-2.846-0.81-3.885C199.316,39.664,198.566,38.664,197.816,37.664z"/>
	<path fill-rule="evenodd" clip-rule="evenodd" fill="#F6C05B" d="M153.571,88.658c-0.988-3.429-1.534-6.923-1.5-10.499
		c3.875-0.613,7.42-2.597,11.408-2.74c0.296,3.683,0.665,7.354,1.34,10.989C160.958,86.598,157.489,88.751,153.571,88.658z"/>
	<path fill-rule="evenodd" clip-rule="evenodd" fill="#D5B95C" d="M206.815,49.663c0-0.75,0-1.5,0-2.25
		c2.032,3.007,5.49,0.658,8.069,2.137c1.349,0.775,3.353,0.6,3.919,2.467c0.568,1.879-0.51,3.21-1.877,4.442
		c-3.532,3.181-7.512,4.991-12.361,4.452C205.424,57.184,207.482,53.696,206.815,49.663z"/>
	<path fill-rule="evenodd" clip-rule="evenodd" fill="#BB8355" d="M206.815,49.663c0.674,4.035-1.419,7.515-2.25,11.249
		c-2.214,2.779-3.536,6.287-6.749,8.249c-0.394-3.163-2.998-5-4.5-7.499c1.727-2.351,4.376-3.607,6.599-5.335
		C202.481,54.332,204.719,52.094,206.815,49.663z"/>
	<path fill-rule="evenodd" clip-rule="evenodd" fill="#BB8355" d="M122.076,84.158c0,0.25,0,0.5,0,0.75
		c0.401,1.219-0.854,2.771,0.75,3.75c0,1.5,0,3,0,4.5c-3.93,1.355-7.997,0.529-11.999,0.75c0.077-1.528,1.242-2.876,0.75-4.5
		c1.616-0.977,0.255-2.65,0.901-3.855C115.599,84.545,118.959,85.191,122.076,84.158z"/>
	<path fill-rule="evenodd" clip-rule="evenodd" fill="#7F5F48" d="M98.828,1.668c1.198,2.698,1.409,5.441-0.667,7.716
		c-2.803,3.071-6.543,3.25-10.348,2.554c-1.118-0.205-2.158-0.835-3.233-1.271C88.524,6.393,93.786,4.204,98.828,1.668z"/>
	<path fill-rule="evenodd" clip-rule="evenodd" fill="#BC8455" d="M164.82,86.408c-0.5-3.75-1-7.499-1.5-11.249
		c2.325-0.583,4.338-2.52,7.007-1.613c-0.141,2.807-1,5.654,0.492,8.362c0,0.75,0,1.5,0,2.25
		C168.819,84.908,166.82,85.658,164.82,86.408z"/>
	<path fill-rule="evenodd" clip-rule="evenodd" fill="#7F5F48" d="M103.328,17.417c-0.865-2.144-1.613-4.272,0.533-6.16
		c1.593-1.401,3.123-3.021,5.466-1.339c0.58,1.868-1.086,3.416-0.75,5.25c-1.131-0.072-0.636,2.296-2.25,1.5
		C105.425,17.307,104.424,17.551,103.328,17.417z"/>
	<path fill-rule="evenodd" clip-rule="evenodd" fill="#48AA8D" d="M103.328,17.417c1.096,0.134,2.101-0.099,3-0.75
		c3.873,6.449,7.145,13.188,9.749,20.247c0.126,2.239-1.518,1.541-2.566,1.406c-8.772-1.131-17.538-1.829-26.286,0.123
		c-3.746,0.835-3.719,0.879-2.255,4.51c2.395,5.94,4.922,11.829,7.092,17.857c0.124,0.457-0.033,0.781-0.468,0.969
		c-5.813,0.667-11.392,2.286-16.918,4.137c-0.884,0.296-1.571,0.641-1.344,1.745c-0.512,0.012-0.762-0.238-0.75-0.75
		c-0.854-4.324-2.819-8.333-3.473-12.74c-0.219-1.477,0.195-3.222-1.026-4.508c4.319-3.228,8.34-6.891,13.409-9.018
		c0.901-0.378,2.217-0.638,1.208-2.287c-1.773-2.894-2.679-6.267-4.868-8.943c4.478-4.005,10.04-5.99,15.455-8.224
		C96.59,19.828,99.978,18.668,103.328,17.417z"/>
	<path fill-rule="evenodd" clip-rule="evenodd" fill="#6FC5AB" d="M73.332,67.661c-0.152-1.016,0.314-1.354,1.292-1.694
		c5.69-1.98,11.479-3.51,17.456-4.305c1.626,3.366,2.136,7.129,3.75,10.499c-0.989,1.151-2.378,1.305-3.75,1.5c-1.5,1-3,2-4.5,3
		C82.464,74.239,77.333,71.843,73.332,67.661z"/>
	<path fill-rule="evenodd" clip-rule="evenodd" fill="#D6B85B" d="M83.83,91.657c-5.037,0.566-9.972-0.734-14.984-0.822
		c-4.25-0.074-5.27-1.623-5.263-6.677c0.104-3.319,1.432-5.832,4.267-7.792c1.293-0.894,1.67,0.282,2.482,0.293
		c2.702,6.177,7.238,10.696,12.875,14.21C83.536,91.075,83.805,91.249,83.83,91.657z"/>
	<path fill-rule="evenodd" clip-rule="evenodd" fill="#3C9E7E" d="M68.082,49.663c1.002,4.083,2.098,8.145,2.96,12.257
		c0.363,1.731,2.086,3.012,1.539,4.991c-7.187-4.064-15.464-11.518-10.499-23.247C65.948,43.797,66.813,46.933,68.082,49.663z"/>
	<path fill-rule="evenodd" clip-rule="evenodd" fill="#B8D3CE" d="M33.586,79.659c-3.021,2.105-5.064-0.672-7.499-1.5
		c-4.488-2.177-8.877-4.513-12.336-8.223c-2.686-2.88-4.606-6.113-4.143-10.26c0.112-1.003-0.852-2.617,1.48-2.548
		c1.912,0.056,2.13,1.505,2.186,2.62c0.118,2.317,0.452,4.407,1.85,6.383c3.203,4.526,8.352,6.19,12.656,9.114
		C29.757,76.588,33.225,76.182,33.586,79.659z"/>
	<path fill-rule="evenodd" clip-rule="evenodd" fill="#666169" d="M83.83,91.657c-5.486-4.111-10.789-8.387-13.498-14.998
		c3.822,2.215,7.674,4.249,12.06,5.317c1.442,0.352,2.47,2.406,3.688,3.682c0.143,0.781,0.001,1.522,0.376,2.371
		C87.534,90.467,86.687,91.88,83.83,91.657z"/>
	<path fill-rule="evenodd" clip-rule="evenodd" fill="#B8D3CE" d="M43.197,77.819c-0.384,0.663-0.594,1.505-1.108,1.785
		c-0.57,0.309-1.44,0.208-1.956-0.523c-2.945-4.181-6.911-7.264-10.971-10.256c-0.532-0.392-1.214-0.888-0.564-1.814
		c0.691-0.987,1.909-1.251,2.599-0.835c4.718,2.854,8.553,6.69,11.721,11.197C43.048,77.558,43.159,77.756,43.197,77.819z"/>
	<path fill-rule="evenodd" clip-rule="evenodd" fill="#C3DCD8" d="M48.655,49.295c-0.218,1.142-0.775,1.671-1.908,1.904
		c-3.475,0.712-6.744,1.864-9.394,4.444c-0.563,0.548-1.757,1.565-2.695-0.011c-0.615-1.033-0.433-1.79,0.388-2.563
		c3.149-2.967,7.054-4.469,11.104-5.62C47.571,47.045,48.432,47.882,48.655,49.295z"/>
	<path fill-rule="evenodd" clip-rule="evenodd" fill="#C3DCD8" d="M42.939,59.75c-0.253-0.458-1.733,0.14-1.884-1.208
		c-0.118-1.055,0.447-1.852,1.239-2.029c2.866-0.641,5.774-1.1,8.674-1.578c1.551-0.255,2.012,1.144,2.816,2.004
		c-0.793,0.718-1.185,1.552-2.618,1.893C48.509,59.465,45.718,59.035,42.939,59.75z"/>
	<path fill-rule="evenodd" clip-rule="evenodd" fill="#666069" d="M170.069,72.91c-2.25,0.75-4.5,1.5-6.749,2.25
		c-3.75,1-7.499,2-11.249,3c-5.085,1.255-10.136,2.685-15.267,3.716c-4.866,0.978-9.816,1.539-14.729,2.283
		c-3.25,0.5-6.5,1-9.749,1.5c-0.083-0.583,0.349-1.424-0.75-1.5c0.064-2.305-0.954-4.204-2.25-5.999
		c5.054-0.019,9.989-0.869,14.862-2.141c8.749-1.282,17.27-3.569,25.783-5.884c0.614-0.167,1.208-0.224,1.826-0.212
		c7.666-1.996,15.222-4.365,22.771-6.761c-1.606,3.112-4.097,5.885-3.75,9.749C170.57,72.91,170.319,72.91,170.069,72.91z"/>
	<path fill-rule="evenodd" clip-rule="evenodd" fill="#48AA8D" d="M174.569,63.161c-7.499,2.25-14.998,4.5-22.497,6.749
		c1.109-2.833,0.144-5.667,0.008-8.501c-0.031-0.649-0.127-1.25-1.034-1.008c-0.833-1.547,0.606-0.74,1.026-0.989
		c4.759-0.315,8.7-3.041,13.09-4.447c3.847-1.232,7.633-2.665,11.51-3.79c1.186-0.343,2.699-0.334,2.446,1.915
		c-0.235,2.083-0.05,4.212-0.05,6.322C177.568,60.662,176.069,61.911,174.569,63.161z"/>
	<path fill-rule="evenodd" clip-rule="evenodd" fill="#806149" d="M195.566,94.674c0.379,2.873-1.688,3.6-3.74,3.642
		c-2.163,0.045-3.702-1.504-3.676-3.678c0.026-2.147,1.521-3.707,3.717-3.65C193.97,91.042,195.931,91.85,195.566,94.674z"/>
	<path fill-rule="evenodd" clip-rule="evenodd" fill="#7F6149" d="M200.066,104.406c-0.25,0-0.5,0-0.75,0
		c-0.38-3.53,1.248-4.575,4.523-3.743c0.697,0.177,1.482,0.005,2.226-0.007c0,0.25,0,0.5,0,0.75
		C204.588,103.451,202.502,104.279,200.066,104.406z"/>
	<path fill-rule="evenodd" clip-rule="evenodd" fill="#B4AB6B" d="M170.069,72.91c0.25,0,0.5,0,0.75,0c0,3,0,6,0,8.999
		C169.133,79.029,170.523,75.893,170.069,72.91z"/>
	<g>
		<path fill="#FFFFFF" d="M269.816,24.646c-1.346-4.85-3.618-8.689-8.921-10.296c-5.325-1.613-10.704-1.62-15.936-0.598
			c-4.938,0.964-8.902,3.936-10.235,9.237c-1.843,7.334-2.046,14.864-0.836,22.223c0.764,4.642,2.391,9.296,7.871,11.333
			c6.898,2.564,13.682,2.197,20.453,0.162c1.711-0.515,3.387-1.619,4.688-3.446c3.792-5.327,3.664-11.279,3.645-18.451
			C270.475,32.182,270.849,28.373,269.816,24.646z M258.587,46.037c-1.506,4.55-5.191,3.546-8.444,3.596
			c-2.877,0.044-4.193-1.941-5.074-4.37c-1.165-3.211-0.63-6.538-0.789-10.036c0.376-2.549-0.188-5.298,0.64-8.142
			c0.901-3.099,2.236-4.993,5.543-5.171c5.48-0.296,7.56,0.228,8.63,4.872C260.565,33.166,260.704,39.64,258.587,46.037z"/>
	</g>
	<g>
		<path fill="#FFFFFF" d="M306.429,113.774c-0.893-3.374-1.741-6.772-2.885-10.064c-0.993-2.861-1.78-6.013-6.343-7.476
			c5.113,0.118,6.663-2.814,7.68-5.826c0.601-1.782,0.162-3.919,0.169-5.896c0.034-9.585-4.438-10.822-11.212-11.477
			c-6.18-0.597-12.466-0.022-18.699-0.185c-2.055-0.053-2.391,0.599-2.376,2.467c0.087,11.228,0.043,22.455,0.043,33.683
			c0,7.831-0.003,7.754,7.818,7.464c1.727-0.064,2.006-0.575,1.967-2.116c-0.105-4.114-0.071-8.234-0.003-12.35
			c0.012-0.706-0.609-1.653,0.731-2.127c4.213-1.49,8.107,0.631,9.926,4.901c0.561,1.317,0.573,2.71,1.192,4.043
			c1.049,2.254,0.084,6.021,2.049,7.178c2.045,1.203,5.307,0.223,8.015,0.451C306.894,116.647,306.838,115.322,306.429,113.774z
			 M294.238,90.027c-1.23,2.515-4.1,1.834-6.146,2.261c-5.483,1.142-5.537,0.884-5.537-5.808c0-6.863,0.007-6.914,6.921-6.058
			C295.333,81.147,296.282,85.853,294.238,90.027z"/>
	</g>
	<g>
		<path fill="#FFFFFF" d="M401.112,18.26c-1.001-3.446-3.083-4.598-6.398-4.615c-9.386-0.05-9.496-0.125-12.224,8.515
			c-3.5,11.086-6.744,22.254-10.259,33.337c-0.454,1.43-0.443,1.534,0.993,1.688c8.116,0.871,8.55,0.64,11.058-6.912
			c0.11-0.33,0.187-0.674,0.258-1.015c0.386-1.819,1.187-2.82,3.365-2.655c3.106,0.235,6.268,0.293,9.359-0.023
			c2.044-0.209,2.896,1.057,2.92,2.268c0.029,1.518,0.817,2.724,0.931,4.186c0.232,2.998,1.65,4.805,5.184,4.192
			c2.058-0.356,4.228-0.064,6.484-0.064C408.854,44.134,404.878,31.228,401.112,18.26z M387.532,38.306
			c1.529-5.638,3.004-11.074,4.478-16.508c0.222,0.027,0.443,0.054,0.665,0.082c1.471,5.487,2.941,10.975,4.402,16.427
			C393.991,38.306,390.816,38.306,387.532,38.306z"/>
	</g>
	<path fill-rule="evenodd" clip-rule="evenodd" fill="#48AA8D" d="M152.072,59.412c-0.586,0.078-1.432-0.364-1.5,0.75
		c-9.205,1.795-18.274-1.392-27.446-0.748c-0.456,0.145-0.835,0.029-1.134-0.346c-0.641-7.027-2.948-13.655-5.123-20.292
		c3.29-1.17,6.705,0.751,9.706-1.112c6.135,0.332,12.046-1.12,17.998-2.25c1.604-0.161,3.171-0.179,3.63,1.841
		C149.866,44.575,151.823,51.845,152.072,59.412z"/>
	<path fill-rule="evenodd" clip-rule="evenodd" fill="#48AA8D" d="M200.066,40.664c2.258,1.845,1.36,3.853-0.01,5.542
		c-1.28,1.578-2.977,2.818-4.49,4.207c-3.828-1.602-7.871-1.005-11.678-0.458c-4.546,0.653-5.251,0.761-5.497-3.795
		c-0.22-4.073-1.008-7.955-2.179-11.83c-0.807-2.668,1.294-2.099,2.524-1.752c6.785,1.913,13.427,4.239,19.643,7.615
		C198.96,40.508,199.458,40.666,200.066,40.664z"/>
	<path fill-rule="evenodd" clip-rule="evenodd" fill="#7F6048" d="M105.578,124.653c1.464-3.022,4.309-1.636,6.195-1.334
		c3.685,0.589,7.277,2.075,8.053,6.584c-0.25,0-0.5,0-0.75,0c-3.648-2.295-8.012-2.694-11.869-4.45
		C106.655,125.201,106.217,124.711,105.578,124.653z"/>
	<path fill-rule="evenodd" clip-rule="evenodd" fill="#6D513D" d="M105.578,124.653c3.769,1.287,7.246,3.406,11.35,3.813
		c0.513,0.05,1.979,0.173,2.148,1.438c-0.93,2.546-3.106,1.453-4.734,1.444C109.955,131.32,106.86,128.829,105.578,124.653z"/>
	<path fill-rule="evenodd" clip-rule="evenodd" fill="#48AA8D" d="M124.325,75.909c-4.902,1.396-9.883,2.272-14.998,2.25
		c-3.254-4.801-7.842-6.603-13.499-6c-1.25-3.5-2.5-6.999-3.75-10.499c8.402-1.916,16.917-2.532,25.515-2.256
		c1.492,0.048,2.988,0.007,4.482,0.007c0.814,5.121,1.866,10.219,1.481,15.456C123.518,75.412,123.755,75.793,124.325,75.909z"/>
	<path fill-rule="evenodd" clip-rule="evenodd" fill="#7F6048" d="M101.569,109.628c2.762,0.006,4.017,1.029,4.028,3.52
		c0.013,2.703-2.18,3.841-3.913,3.808c-1.459-0.027-3.954-1.157-3.559-3.727C98.441,111.172,99.074,109.085,101.569,109.628z"/>
	<path fill-rule="evenodd" clip-rule="evenodd" fill="#B3AA6C" d="M111.577,84.158c1.114,0.068,0.672,0.914,0.75,1.5
		c-0.466,1.207,0.954,2.79-0.75,3.75C111.577,87.658,111.577,85.908,111.577,84.158z"/>
	<path fill-rule="evenodd" clip-rule="evenodd" fill="#6FC5AB" d="M122.076,59.412c-7.477,0.047-14.971-0.331-22.406,0.772
		c-2.547,0.378-5.061,0.979-7.591,1.477c-1.801-6.983-5.101-13.392-7.747-20.049c-0.634-1.594-1.04-2.03,1.179-2.538
		c5.436-1.244,10.685-2.494,16.42-1.499c4.277,0.742,8.791-0.352,13.145,0.831c1.118,0.304,0.936-0.803,1-1.493
		c3.406,1.562,7.008,0.382,10.499,0.75c-2.422,1.584-5.112,0.426-7.665,0.713c-1.46,0.164-2.333-0.431-1.479,2.074
		C119.525,46.597,121.587,52.836,122.076,59.412z"/>
	<path fill-rule="evenodd" clip-rule="evenodd" fill="#6D513D" d="M200.066,104.406c2.518,0.035,4.404-1.191,5.999-3
		c2.704,0.513,3.981,2.658,5.027,4.795c0.973,1.986-0.775,2.962-2.227,3.441C206.442,110.444,201.167,107.153,200.066,104.406z"/>
	<path fill-rule="evenodd" clip-rule="evenodd" fill="#7F6048" d="M199.275,30.168c-2.041,0.259-3.711-0.768-3.588-2.617
		c0.186-2.814,2.244-3.93,5.125-4.236c2.391-0.254,3.796,1.862,3.518,2.577C203.515,27.978,202.445,30.547,199.275,30.168z"/>
	<path fill-rule="evenodd" clip-rule="evenodd" fill="#BDA369" d="M122.825,88.658c-1.706-0.958-0.282-2.543-0.75-3.75
		C123.782,85.867,122.357,87.452,122.825,88.658z"/>
	<path fill-rule="evenodd" clip-rule="evenodd" fill="#6FC5AB" d="M124.325,75.909c-0.257-0.199-0.749-0.412-0.737-0.594
		c0.33-5.384-0.593-10.643-1.512-15.903c6.668-0.111,13.296,0.295,19.867,1.499c2.937,0.538,5.703-1.058,8.629-0.749
		c1.365,0.81,2.787,5.401,1.926,7.291c-0.4,0.876-0.294,1.643-0.426,2.458c-5.771,1.392-11.508,2.954-17.325,4.111
		C131.291,74.709,127.917,75.95,124.325,75.909z"/>
</g>
</svg>
