<svg xmlns="http://www.w3.org/2000/svg" xmlns:xlink="http://www.w3.org/1999/xlink" width="1080" zoomAndPan="magnify" viewBox="0 0 810 809.999993" height="1080" preserveAspectRatio="xMidYMid meet" version="1.0"><defs><g/><clipPath id="id1"><path d="M 228.992188 227.472656 L 569.492188 227.472656 L 569.492188 567.972656 L 228.992188 567.972656 Z M 228.992188 227.472656 " clip-rule="nonzero"/></clipPath><clipPath id="id2"><path d="M 281 336 L 503 336 L 503 475.792969 L 281 475.792969 Z M 281 336 " clip-rule="nonzero"/></clipPath><clipPath id="id3"><path d="M 363 408 L 412 408 L 412 475.792969 L 363 475.792969 Z M 363 408 " clip-rule="nonzero"/></clipPath><clipPath id="id4"><path d="M 363 410 L 412 410 L 412 475.792969 L 363 475.792969 Z M 363 410 " clip-rule="nonzero"/></clipPath></defs><g clip-path="url(#id1)"><path fill="#000000" d="M 399.242188 567.972656 C 305.183594 567.972656 228.992188 491.253906 228.992188 397.722656 C 228.992188 304.191406 305.183594 227.472656 399.242188 227.472656 C 493.296875 227.472656 569.492188 303.664062 569.492188 397.722656 C 569.492188 491.78125 492.773438 567.972656 399.242188 567.972656 Z M 399.242188 237.980469 C 310.960938 237.980469 239.5 309.445312 239.5 397.722656 C 239.5 486 310.960938 557.464844 399.242188 557.464844 C 487.519531 557.464844 558.980469 486 558.980469 397.722656 C 558.980469 309.445312 486.992188 237.980469 399.242188 237.980469 Z M 399.242188 237.980469 " fill-opacity="1" fill-rule="nonzero"/></g><g clip-path="url(#id2)"><path fill="#6fceae" d="M 497.980469 439.699219 C 489.875 423.914062 481.488281 422.59375 479.441406 411.496094 C 478.976562 408.964844 479.085938 407.273438 478.835938 405.632812 C 481.628906 403.03125 483.910156 400.164062 485.53125 397.046875 C 487.027344 397.136719 491.160156 397.152344 495.34375 394.535156 C 497.054688 393.464844 498.351562 392.238281 499.316406 391.078125 C 500.6875 389.4375 499.992188 386.945312 497.960938 386.269531 C 496.910156 385.910156 495.734375 385.589844 494.472656 385.34375 C 492.136719 384.859375 490.054688 384.753906 488.378906 384.773438 L 488.363281 384.773438 C 488.34375 383.523438 488.238281 382.527344 488.148438 381.8125 C 488.132812 381.796875 488.132812 381.761719 488.132812 381.742188 C 488.09375 381.066406 487.96875 380.390625 487.722656 379.730469 C 487.613281 379.445312 487.488281 379.160156 487.363281 378.875 C 485.816406 375.722656 482.484375 373.707031 478.726562 373.65625 C 480.902344 373.15625 487.167969 371.429688 492.136719 365.566406 C 494.417969 362.875 495.769531 360.097656 496.570312 357.800781 C 497.230469 355.855469 495.753906 353.84375 493.6875 353.84375 L 475.789062 353.84375 C 472.726562 353.84375 469.679688 354.484375 466.847656 355.714844 C 463.894531 356.996094 460.9375 358.28125 457.980469 359.5625 C 456.164062 358.617188 454.292969 357.710938 452.335938 356.855469 C 443.984375 353.167969 434.332031 350.316406 423.554688 349.390625 C 421.6875 349.230469 419.796875 349.121094 417.910156 349.085938 C 408.152344 348.855469 398.25 350.136719 388.972656 352.453125 C 389.828125 349.90625 390.378906 347.785156 390.71875 346.003906 C 391.839844 339.984375 390.46875 337.96875 389.46875 337.167969 C 387.582031 335.601562 384.128906 336.027344 380.136719 337.632812 C 375.472656 339.503906 370.058594 342.941406 365.535156 346.683594 L 365.515625 346.683594 C 364.414062 347.609375 363.378906 348.515625 362.402344 349.441406 C 359.640625 352.0625 357.539062 354.59375 356.007812 356.675781 C 355.222656 357.726562 354.832031 359.011719 354.832031 360.3125 L 354.832031 367.777344 C 352.535156 369.449219 350.488281 371.214844 348.722656 372.996094 C 340.871094 372.460938 335.117188 373.085938 331.199219 373.816406 C 329.652344 374.101562 326.230469 374.8125 321.707031 374.492188 C 319.480469 374.332031 317.078125 374.136719 314.316406 372.90625 C 310.753906 371.320312 310.96875 369.949219 307.996094 368.898438 C 303.738281 367.402344 299.570312 369.183594 299.019531 369.433594 C 295.726562 370.894531 295.386719 372.851562 290.882812 377.644531 C 285.734375 383.113281 284.71875 382.097656 283.082031 384.808594 C 279.855469 390.117188 282.046875 396.851562 284.863281 405.4375 C 285.644531 407.789062 286.695312 410.65625 288.175781 413.863281 C 290.84375 419.636719 296.4375 423.539062 302.796875 424.125 C 325.859375 426.246094 334.832031 428.277344 337.734375 429.96875 C 338.164062 430.21875 341.972656 432.445312 346.925781 433.550781 C 352.996094 434.921875 353.710938 432.945312 362.007812 433.550781 C 364.183594 433.710938 365.910156 433.925781 367.316406 434.101562 C 362.4375 442.65625 363.09375 449.105469 363.523438 451.597656 C 367.171875 472.800781 401.347656 475.648438 406.691406 475.078125 C 407.546875 474.988281 409.773438 474.757812 411.019531 473.136719 C 412.425781 471.285156 411.820312 468.664062 411.605469 467.703125 C 409.699219 459.417969 397.289062 454.199219 392.871094 444.988281 C 391.324219 441.765625 390.273438 437.007812 391.839844 430.023438 L 391.855469 430.023438 C 395.847656 429.953125 400.085938 429.738281 404.5 429.382812 C 408.917969 429.0625 413.496094 428.582031 418.125 427.9375 C 423.519531 427.207031 429.003906 426.265625 434.402344 425.089844 C 438.335938 424.25 442.203125 423.269531 445.976562 422.167969 C 448.132812 421.5625 450.25 420.882812 452.335938 420.171875 C 454.472656 429.863281 460.386719 437.183594 460.902344 437.828125 C 473.867188 453.449219 497.695312 458.617188 501.703125 452.863281 C 503.410156 450.40625 501.328125 446.21875 497.980469 439.699219 Z M 497.980469 439.699219 " fill-opacity="1" fill-rule="nonzero"/></g><path fill="#d6eae8" d="M 367.316406 434.101562 C 365.910156 433.925781 364.183594 433.710938 362.007812 433.550781 C 353.710938 432.945312 352.996094 434.921875 346.925781 433.550781 C 341.972656 432.445312 338.164062 430.21875 337.734375 429.96875 C 334.832031 428.277344 325.859375 426.246094 302.796875 424.125 C 296.4375 423.539062 290.84375 419.636719 288.175781 413.863281 C 286.695312 410.65625 285.644531 407.789062 284.863281 405.4375 C 282.046875 396.851562 279.855469 390.117188 283.082031 384.808594 C 284.71875 382.097656 285.734375 383.113281 290.882812 377.644531 C 295.386719 372.851562 295.726562 370.894531 299.019531 369.433594 C 299.570312 369.183594 303.738281 367.402344 307.996094 368.898438 C 310.96875 369.949219 310.753906 371.320312 314.316406 372.90625 C 317.078125 374.136719 319.480469 374.332031 321.707031 374.492188 C 326.230469 374.8125 329.652344 374.101562 331.199219 373.816406 C 335.117188 373.085938 340.871094 372.460938 348.722656 372.996094 C 346.746094 375.007812 345.144531 377.058594 343.96875 379.105469 C 342.4375 381.761719 341.636719 384.414062 341.6875 386.980469 C 341.832031 393.859375 348.046875 399.398438 353.390625 403.070312 C 353.390625 403.070312 354.15625 403.761719 355.4375 404.796875 C 357.34375 406.3125 360.351562 408.554688 363.699219 410.335938 C 364.484375 410.746094 365.304688 411.140625 366.140625 411.476562 C 366.160156 411.496094 366.195312 411.496094 366.210938 411.511719 C 368.652344 412.742188 373.210938 415.628906 375.207031 421.132812 C 376.488281 424.644531 377.34375 430.933594 374.15625 433.550781 C 372.625 434.832031 371.128906 434.566406 367.316406 434.101562 Z M 367.867188 426.960938 C 369.238281 424.75 366.496094 419.601562 362.757812 417.640625 C 360.636719 416.535156 359.960938 417.390625 357.164062 416.054688 C 353.496094 414.328125 353.015625 412.066406 350.808594 412.117188 C 348.386719 412.191406 346.585938 414.578125 346.140625 415.433594 C 344.574219 418.585938 343.71875 423.003906 345.980469 425.550781 C 346.960938 426.65625 348.101562 426.976562 355.792969 427.457031 C 361.082031 427.796875 363.984375 427.851562 365.605469 427.742188 L 365.625 427.742188 C 367.28125 427.617188 367.636719 427.332031 367.867188 426.960938 Z M 367.867188 426.960938 " fill-opacity="1" fill-rule="nonzero"/><path fill="#ffc05a" d="M 444.640625 410.960938 L 445.976562 422.167969 C 442.203125 423.269531 438.335938 424.25 434.402344 425.089844 L 432.675781 414.363281 C 436.609375 413.347656 440.617188 412.207031 444.640625 410.941406 Z M 444.640625 410.960938 " fill-opacity="1" fill-rule="nonzero"/><path fill="#ffc05a" d="M 416.449219 417.980469 L 418.125 427.9375 C 413.496094 428.582031 408.917969 429.0625 404.5 429.382812 L 403.324219 420.171875 C 407.527344 419.566406 411.910156 418.835938 416.449219 417.980469 Z M 416.449219 417.980469 " fill-opacity="1" fill-rule="nonzero"/><path fill="#bc8354" d="M 488.363281 384.773438 C 488.414062 386.160156 488.34375 387.835938 488.023438 389.671875 C 487.578125 392.273438 486.722656 394.730469 485.53125 397.046875 C 483.910156 400.164062 481.628906 403.03125 478.835938 405.632812 C 478.675781 404.511719 478.355469 403.425781 477.589844 402.089844 C 476.699219 400.519531 475.414062 399.007812 473.867188 397.722656 L 473.917969 397.652344 C 478.726562 394.390625 482.574219 391.097656 485.476562 388.335938 C 487.277344 386.625 488.292969 384.21875 488.148438 381.8125 C 488.238281 382.527344 488.34375 383.523438 488.363281 384.773438 Z M 488.363281 384.773438 " fill-opacity="1" fill-rule="nonzero"/><path fill="#bc8354" d="M 451.960938 408.519531 C 451.765625 409.695312 451.695312 410.710938 451.640625 411.496094 C 451.425781 414.507812 451.730469 417.429688 452.335938 420.171875 C 450.25 420.882812 448.132812 421.5625 445.976562 422.167969 L 444.640625 410.960938 L 444.640625 410.941406 C 445.265625 410.765625 445.90625 410.550781 446.53125 410.355469 C 448.417969 409.75 450.234375 409.144531 451.960938 408.519531 Z M 451.960938 408.519531 " fill-opacity="1" fill-rule="nonzero"/><path fill="#bc8354" d="M 432.675781 414.363281 L 434.402344 425.089844 C 429.003906 426.265625 423.519531 427.207031 418.125 427.9375 L 416.449219 417.980469 C 421.6875 416.964844 427.136719 415.769531 432.675781 414.363281 Z M 432.675781 414.363281 " fill-opacity="1" fill-rule="nonzero"/><path fill="#bc8354" d="M 403.324219 420.171875 L 404.5 429.382812 C 400.085938 429.738281 395.847656 429.953125 391.855469 430.023438 C 392.015625 429.292969 392.195312 428.542969 392.425781 427.761719 C 393.015625 425.710938 393.246094 423.574219 393.085938 421.472656 L 393.496094 421.4375 C 396.628906 421.078125 399.90625 420.671875 403.324219 420.171875 Z M 403.324219 420.171875 " fill-opacity="1" fill-rule="nonzero"/><path fill="#655f68" d="M 488.148438 381.8125 C 488.292969 384.21875 487.277344 386.625 485.476562 388.335938 C 482.574219 391.097656 478.726562 394.390625 473.917969 397.652344 L 473.867188 397.722656 C 471.496094 395.746094 468.503906 394.339844 465.40625 394.285156 L 465.40625 394.265625 C 469.023438 392.253906 472.65625 389.8125 476.289062 386.820312 C 476.644531 386.519531 477 386.214844 477.355469 385.910156 C 478.65625 384.808594 479.832031 383.738281 480.863281 382.722656 C 482.34375 381.28125 482.753906 379.175781 482.074219 377.394531 C 481.808594 376.648438 481.347656 375.972656 480.722656 375.402344 C 480.082031 374.832031 479.421875 374.242188 478.726562 373.65625 C 482.484375 373.707031 485.816406 375.722656 487.363281 378.875 C 487.488281 379.160156 487.613281 379.445312 487.722656 379.730469 C 487.96875 380.390625 488.09375 381.066406 488.132812 381.742188 C 488.132812 381.761719 488.132812 381.796875 488.148438 381.8125 Z M 488.148438 381.8125 " fill-opacity="1" fill-rule="nonzero"/><path fill="#655f68" d="M 456.734375 398.4375 C 456.164062 399.113281 455.699219 399.738281 455.34375 400.199219 C 453.207031 403.085938 452.351562 406.113281 451.960938 408.519531 C 450.234375 409.144531 448.417969 409.75 446.53125 410.355469 C 445.90625 410.550781 445.265625 410.765625 444.640625 410.941406 C 440.617188 412.207031 436.609375 413.347656 432.675781 414.363281 C 427.136719 415.769531 421.6875 416.964844 416.449219 417.980469 C 411.910156 418.835938 407.527344 419.566406 403.324219 420.171875 C 399.90625 420.671875 396.628906 421.078125 393.496094 421.4375 L 393.085938 421.472656 C 392.90625 419.136719 392.210938 416.859375 390.949219 414.828125 C 390.824219 414.613281 390.679688 414.398438 390.519531 414.203125 L 390.539062 414.203125 C 395.203125 413.863281 400.066406 413.1875 405.054688 412.296875 C 414.421875 410.621094 424.160156 408.164062 433.527344 405.632812 C 436.148438 404.9375 438.710938 404.226562 441.242188 403.53125 C 446.28125 402.140625 451.460938 400.59375 456.734375 398.4375 Z M 456.734375 398.4375 " fill-opacity="1" fill-rule="nonzero"/><path fill="#655f68" d="M 362.757812 417.640625 C 366.496094 419.601562 369.238281 424.75 367.867188 426.960938 C 367.636719 427.332031 367.28125 427.617188 365.625 427.742188 L 365.605469 427.742188 C 364.859375 427.457031 364.253906 427.171875 363.789062 426.851562 C 361.117188 425.070312 358.820312 422.898438 358.820312 422.898438 C 354.742188 419.050781 352.269531 415.003906 350.808594 412.117188 C 353.015625 412.066406 353.496094 414.328125 357.164062 416.054688 C 359.960938 417.390625 360.636719 416.535156 362.757812 417.640625 Z M 362.757812 417.640625 " fill-opacity="1" fill-rule="nonzero"/><path fill="#d6b85a" d="M 365.605469 427.742188 C 363.984375 427.851562 361.082031 427.796875 355.792969 427.457031 C 348.101562 426.976562 346.960938 426.65625 345.980469 425.550781 C 343.71875 423.003906 344.574219 418.585938 346.140625 415.433594 C 346.585938 414.578125 348.386719 412.191406 350.808594 412.117188 C 352.269531 415.003906 354.742188 419.050781 358.820312 422.898438 C 358.820312 422.898438 361.117188 425.070312 363.789062 426.851562 C 364.253906 427.171875 364.859375 427.457031 365.605469 427.742188 Z M 365.605469 427.742188 " fill-opacity="1" fill-rule="nonzero"/><path fill="#3fa07f" d="M 355.4375 404.777344 L 355.4375 404.796875 C 354.15625 403.761719 353.390625 403.070312 353.390625 403.070312 C 348.046875 399.398438 341.832031 393.859375 341.6875 386.980469 C 341.636719 384.414062 342.4375 381.761719 343.96875 379.105469 C 345.410156 380.070312 347.386719 381.671875 348.832031 384.164062 C 349.1875 384.789062 349.472656 385.394531 349.703125 385.984375 C 350.503906 388.015625 350.648438 389.832031 350.84375 391.222656 C 351.21875 393.984375 352.070312 397.742188 354.226562 402.355469 C 354.582031 403.140625 354.992188 403.941406 355.4375 404.777344 Z M 355.4375 404.777344 " fill-opacity="1" fill-rule="nonzero"/><path fill="#4aaf8f" d="M 482.074219 377.394531 C 482.753906 379.175781 482.34375 381.28125 480.863281 382.722656 C 479.832031 383.738281 478.65625 384.808594 477.355469 385.910156 C 476.714844 385.875 475.824219 385.824219 474.773438 385.789062 C 472.03125 385.699219 468.578125 385.75 464.625 386.195312 C 463.214844 386.355469 461.703125 386.625 460.152344 386.964844 C 459.957031 383.238281 459.476562 379.054688 458.496094 374.582031 C 458 372.300781 457.429688 370.128906 456.789062 368.113281 C 457.125 368.167969 457.480469 368.222656 457.820312 368.292969 C 471.070312 370.945312 482.074219 377.394531 482.074219 377.394531 Z M 482.074219 377.394531 " fill-opacity="1" fill-rule="nonzero"/><path fill="#4aaf8f" d="M 460.152344 386.964844 C 460.332031 390.207031 460.277344 393.128906 460.136719 395.621094 C 458.710938 396.421875 457.589844 397.472656 456.75 398.4375 L 456.734375 398.4375 C 451.460938 400.59375 446.28125 402.140625 441.242188 403.53125 C 438.710938 404.226562 436.148438 404.9375 433.527344 405.632812 C 433.617188 402.820312 433.617188 399.503906 433.386719 395.816406 C 435.382812 395.355469 437.464844 394.660156 439.707031 393.699219 C 439.707031 393.699219 450.714844 389.011719 460.152344 386.964844 Z M 460.152344 386.964844 " fill-opacity="1" fill-rule="nonzero"/><path fill="#4aaf8f" d="M 429.328125 373.601562 C 431.855469 381.832031 432.960938 389.402344 433.386719 395.816406 C 423.984375 398.097656 416.683594 395.605469 403.359375 395.121094 C 402.382812 389.386719 400.902344 383.113281 398.640625 376.523438 C 398.375 375.757812 398.125 375.007812 397.839844 374.277344 C 410.199219 374.492188 419.957031 372.726562 428.453125 370.945312 C 428.773438 371.820312 429.058594 372.691406 429.328125 373.601562 Z M 429.328125 373.601562 " fill-opacity="1" fill-rule="nonzero"/><path fill="#4aaf8f" d="M 452.335938 356.855469 C 453.832031 359.917969 455.433594 363.679688 456.789062 368.113281 C 447.617188 366.527344 439.03125 368.753906 428.453125 370.945312 C 425.355469 361.699219 421.332031 354.394531 417.910156 349.085938 C 419.796875 349.121094 421.6875 349.230469 423.554688 349.390625 C 434.332031 350.316406 443.984375 353.167969 452.335938 356.855469 Z M 452.335938 356.855469 " fill-opacity="1" fill-rule="nonzero"/><path fill="#4aaf8f" d="M 403.359375 395.121094 C 404.464844 401.625 404.929688 407.433594 405.054688 412.296875 C 400.066406 413.1875 395.203125 413.863281 390.539062 414.203125 L 390.519531 414.203125 C 388.417969 411.140625 385.355469 409.019531 381.9375 408.359375 C 380.101562 408.019531 378.375 408.144531 376.808594 408.519531 C 375.828125 405.011719 374.707031 401.339844 373.390625 397.527344 C 378.464844 396.582031 382.828125 396.03125 386.335938 395.691406 C 393.03125 395.035156 398.589844 394.960938 403.359375 395.121094 Z M 403.359375 395.121094 " fill-opacity="1" fill-rule="nonzero"/><path fill="#4aaf8f" d="M 397.839844 374.277344 C 396.433594 374.261719 394.972656 374.207031 393.496094 374.136719 C 384.019531 373.636719 374.527344 371.996094 364.589844 375.757812 C 362.757812 371.875 360.90625 368.238281 359.070312 364.871094 C 366.175781 360.382812 374.992188 356.460938 384.625 353.648438 C 385.605469 353.363281 386.585938 353.078125 387.582031 352.828125 C 391.019531 358.511719 394.722656 365.671875 397.839844 374.277344 Z M 397.839844 374.277344 " fill-opacity="1" fill-rule="nonzero"/><path fill="#4aaf8f" d="M 373.390625 397.527344 C 367.796875 398.5625 361.351562 400.09375 354.226562 402.355469 C 352.070312 397.742188 351.21875 393.984375 350.84375 391.222656 C 350.648438 389.832031 350.503906 388.015625 349.703125 385.984375 C 352.160156 383.347656 355.492188 380.425781 359.871094 377.964844 C 361.457031 377.074219 363.023438 376.363281 364.589844 375.757812 C 366.335938 379.445312 368.046875 383.363281 369.703125 387.496094 C 371.074219 390.9375 372.300781 394.285156 373.390625 397.527344 Z M 373.390625 397.527344 " fill-opacity="1" fill-rule="nonzero"/><path fill="#d6b85a" d="M 497.980469 439.699219 C 501.328125 446.21875 503.410156 450.40625 501.703125 452.863281 C 497.695312 458.617188 473.867188 453.449219 460.902344 437.828125 C 460.386719 437.183594 454.472656 429.863281 452.335938 420.171875 C 451.730469 417.429688 451.425781 414.507812 451.640625 411.496094 C 451.695312 410.710938 451.765625 409.695312 451.960938 408.519531 C 452.351562 406.113281 453.207031 403.085938 455.34375 400.199219 C 455.699219 399.738281 456.164062 399.113281 456.734375 398.4375 L 456.75 398.4375 C 457.589844 397.472656 458.710938 396.421875 460.136719 395.621094 C 460.917969 395.175781 461.792969 394.800781 462.769531 394.570312 C 463.644531 394.355469 464.535156 394.265625 465.40625 394.285156 C 468.503906 394.339844 471.496094 395.746094 473.867188 397.722656 C 475.414062 399.007812 476.699219 400.519531 477.589844 402.089844 C 478.355469 403.425781 478.675781 404.511719 478.835938 405.632812 C 479.085938 407.273438 478.976562 408.964844 479.441406 411.496094 C 481.488281 422.59375 489.875 423.914062 497.980469 439.699219 Z M 492.121094 444.1875 C 493.152344 442.421875 491.460938 439.535156 488.363281 437.753906 C 485.265625 435.957031 481.914062 435.957031 480.882812 437.71875 C 479.867188 439.484375 481.542969 442.371094 484.660156 444.152344 C 487.757812 445.949219 491.105469 445.96875 492.121094 444.1875 Z M 476.875 430.71875 C 476.875 428.667969 475.21875 427.011719 473.171875 427.011719 C 471.125 427.011719 469.46875 428.667969 469.46875 430.71875 C 469.46875 432.75 471.125 434.40625 473.171875 434.40625 C 475.21875 434.40625 476.875 432.75 476.875 430.71875 Z M 476.875 430.71875 " fill-opacity="1" fill-rule="nonzero"/><path fill="#d6b85a" d="M 497.960938 386.269531 C 499.992188 386.945312 500.6875 389.4375 499.316406 391.078125 C 498.351562 392.238281 497.054688 393.464844 495.34375 394.535156 C 491.160156 397.152344 487.027344 397.136719 485.53125 397.046875 C 486.722656 394.730469 487.578125 392.273438 488.023438 389.671875 C 488.34375 387.835938 488.414062 386.160156 488.363281 384.773438 L 488.378906 384.773438 C 490.054688 384.753906 492.136719 384.859375 494.472656 385.34375 C 495.734375 385.589844 496.910156 385.910156 497.960938 386.269531 Z M 497.960938 386.269531 " fill-opacity="1" fill-rule="nonzero"/><path fill="#d6b85a" d="M 493.6875 353.84375 C 495.753906 353.84375 497.230469 355.855469 496.570312 357.800781 C 495.769531 360.097656 494.417969 362.875 492.136719 365.566406 C 487.167969 371.429688 480.902344 373.15625 478.726562 373.65625 L 478.710938 373.65625 C 473.492188 369.183594 466.527344 364.015625 457.980469 359.5625 C 460.9375 358.28125 463.894531 356.996094 466.847656 355.714844 C 469.679688 354.484375 472.726562 353.84375 475.789062 353.84375 Z M 482.503906 365.832031 C 484.710938 364.855469 485.886719 362.699219 485.140625 361.042969 C 484.375 359.367188 481.988281 358.832031 479.777344 359.828125 C 477.570312 360.828125 476.394531 362.984375 477.144531 364.640625 C 477.910156 366.296875 480.296875 366.832031 482.503906 365.832031 Z M 482.503906 365.832031 " fill-opacity="1" fill-rule="nonzero"/><path fill="#7f5d46" d="M 488.363281 437.753906 C 491.460938 439.535156 493.152344 442.421875 492.121094 444.1875 C 491.105469 445.96875 487.757812 445.949219 484.65625 444.152344 C 481.542969 442.371094 479.867188 439.484375 480.882812 437.71875 C 481.914062 435.957031 485.265625 435.957031 488.363281 437.753906 Z M 488.363281 437.753906 " fill-opacity="1" fill-rule="nonzero"/><path fill="#7f5d46" d="M 485.140625 361.042969 C 485.886719 362.699219 484.710938 364.855469 482.503906 365.832031 C 480.296875 366.832031 477.910156 366.296875 477.144531 364.640625 C 476.394531 362.984375 477.570312 360.828125 479.777344 359.828125 C 481.988281 358.832031 484.375 359.367188 485.140625 361.042969 Z M 485.140625 361.042969 " fill-opacity="1" fill-rule="nonzero"/><path fill="#7f5d46" d="M 473.171875 427.011719 C 475.21875 427.011719 476.875 428.667969 476.875 430.71875 C 476.875 432.75 475.21875 434.40625 473.171875 434.40625 C 471.125 434.40625 469.46875 432.75 469.46875 430.71875 C 469.46875 428.667969 471.125 427.011719 473.171875 427.011719 Z M 473.171875 427.011719 " fill-opacity="1" fill-rule="nonzero"/><g clip-path="url(#id3)"><path fill="#d6b85a" d="M 411.605469 467.703125 C 411.820312 468.664062 412.425781 471.285156 411.019531 473.136719 C 409.773438 474.757812 407.546875 474.988281 406.691406 475.078125 C 401.347656 475.648438 367.171875 472.800781 363.523438 451.597656 C 363.09375 449.105469 362.4375 442.65625 367.316406 434.101562 C 371.128906 434.566406 372.625 434.832031 374.15625 433.550781 C 377.34375 430.933594 376.488281 424.644531 375.207031 421.132812 C 373.210938 415.628906 368.652344 412.742188 366.210938 411.511719 C 367.246094 411.941406 368.3125 412.296875 369.433594 412.636719 C 369.84375 412.242188 372.710938 409.519531 376.808594 408.519531 C 378.375 408.144531 380.101562 408.019531 381.9375 408.359375 C 385.355469 409.019531 388.417969 411.140625 390.519531 414.203125 C 390.679688 414.398438 390.824219 414.613281 390.949219 414.828125 C 392.214844 416.859375 392.90625 419.136719 393.085938 421.472656 C 393.246094 423.574219 393.015625 425.710938 392.425781 427.761719 C 392.195312 428.542969 392.015625 429.292969 391.855469 430.023438 L 391.839844 430.023438 C 390.273438 437.007812 391.324219 441.765625 392.871094 444.988281 C 397.289062 454.199219 409.699219 459.417969 411.605469 467.703125 Z M 400.726562 466.011719 C 401.457031 464.105469 398.960938 461.359375 395.152344 459.882812 C 391.324219 458.421875 387.636719 458.761719 386.886719 460.667969 C 386.15625 462.574219 388.652344 465.316406 392.460938 466.796875 C 396.292969 468.257812 399.976562 467.917969 400.726562 466.011719 Z M 386.761719 449.210938 C 386.761719 447.164062 385.105469 445.503906 383.058594 445.503906 C 381.011719 445.503906 379.335938 447.164062 379.335938 449.210938 C 379.335938 451.242188 381.011719 452.898438 383.058594 452.898438 C 385.105469 452.898438 386.761719 451.242188 386.761719 449.210938 Z M 386.761719 449.210938 " fill-opacity="1" fill-rule="nonzero"/></g><path fill="#7f5d46" d="M 395.152344 459.882812 C 398.960938 461.359375 401.457031 464.105469 400.726562 466.011719 C 399.976562 467.917969 396.292969 468.257812 392.460938 466.796875 C 388.652344 465.316406 386.15625 462.574219 386.886719 460.667969 C 387.636719 458.761719 391.324219 458.421875 395.152344 459.882812 Z M 395.152344 459.882812 " fill-opacity="1" fill-rule="nonzero"/><path fill="#d6b85a" d="M 389.46875 337.167969 C 390.46875 337.96875 391.839844 339.984375 390.71875 346.003906 C 388.667969 345.097656 386.28125 345.59375 384.839844 347.199219 C 383.253906 348.960938 383.148438 351.6875 384.625 353.648438 C 374.992188 356.460938 366.175781 360.382812 359.070312 364.871094 C 357.574219 365.796875 356.167969 366.777344 354.832031 367.757812 L 354.832031 360.3125 C 354.832031 359.011719 355.222656 357.726562 356.007812 356.675781 C 357.539062 354.59375 359.640625 352.0625 362.402344 349.441406 C 363.378906 348.515625 364.414062 347.609375 365.515625 346.683594 L 365.535156 346.683594 C 371.429688 349.78125 377.59375 348.339844 379.800781 344.722656 C 381.492188 341.941406 380.441406 338.539062 380.136719 337.632812 C 384.128906 336.027344 387.582031 335.601562 389.46875 337.167969 Z M 389.46875 337.167969 " fill-opacity="1" fill-rule="nonzero"/><path fill="#7f5d46" d="M 390.71875 346.003906 C 390.378906 347.785156 389.828125 349.90625 388.972656 352.453125 C 388.507812 352.578125 388.046875 352.703125 387.582031 352.828125 C 386.585938 353.078125 385.605469 353.363281 384.625 353.648438 C 383.148438 351.6875 383.253906 348.960938 384.839844 347.199219 C 386.28125 345.59375 388.667969 345.097656 390.71875 346.003906 Z M 390.71875 346.003906 " fill-opacity="1" fill-rule="nonzero"/><path fill="#7f5d46" d="M 383.058594 445.503906 C 385.105469 445.503906 386.761719 447.164062 386.761719 449.210938 C 386.761719 451.242188 385.105469 452.898438 383.058594 452.898438 C 381.011719 452.898438 379.335938 451.242188 379.335938 449.210938 C 379.335938 447.164062 381.011719 445.503906 383.058594 445.503906 Z M 383.058594 445.503906 " fill-opacity="1" fill-rule="nonzero"/><path fill="#7f5d46" d="M 380.136719 337.632812 C 380.441406 338.539062 381.492188 341.941406 379.800781 344.722656 C 377.59375 348.339844 371.429688 349.78125 365.535156 346.683594 C 370.058594 342.941406 375.472656 339.503906 380.136719 337.632812 Z M 380.136719 337.632812 " fill-opacity="1" fill-rule="nonzero"/><path fill="#c3ddda" d="M 365.625 427.742188 C 367.28125 427.617188 367.636719 427.332031 367.867188 426.960938 C 368.652344 425.695312 368.101562 423.484375 366.765625 421.4375 C 366.765625 421.4375 372.605469 422.273438 373.140625 417.265625 C 373.957031 418.390625 374.671875 419.671875 375.207031 421.132812 C 376.488281 424.644531 377.34375 430.933594 374.15625 433.550781 C 372.625 434.832031 371.128906 434.566406 367.316406 434.101562 C 365.910156 433.925781 364.183594 433.710938 362.007812 433.550781 C 353.710938 432.945312 352.996094 434.921875 346.925781 433.550781 C 341.972656 432.445312 338.164062 430.21875 337.734375 429.96875 C 334.832031 428.277344 325.859375 426.246094 302.796875 424.125 C 296.4375 423.539062 290.84375 419.636719 288.175781 413.863281 C 286.695312 410.65625 285.644531 407.789062 284.863281 405.4375 C 283.652344 401.714844 282.527344 398.328125 281.941406 395.265625 C 282.367188 396.457031 288.902344 413.757812 309.347656 415.128906 C 330.523438 416.554688 344.699219 419.957031 344.699219 419.957031 C 344.414062 422.042969 344.699219 424.109375 345.980469 425.550781 C 346.960938 426.65625 348.101562 426.976562 355.792969 427.457031 C 361.082031 427.796875 363.984375 427.851562 365.605469 427.742188 Z M 365.625 427.742188 " fill-opacity="1" fill-rule="nonzero"/><path fill="#c1a352" d="M 452.335938 420.171875 C 452.335938 420.171875 468.773438 440.605469 481.007812 440.515625 C 481.628906 441.816406 482.914062 443.152344 484.660156 444.152344 C 487.757812 445.949219 491.105469 445.96875 492.121094 444.1875 C 493.152344 442.421875 491.460938 439.535156 488.363281 437.753906 C 488.203125 437.667969 488.042969 437.578125 487.882812 437.488281 C 489.449219 435.8125 490.785156 433.390625 491.816406 430.023438 C 493.828125 432.570312 495.914062 435.671875 497.980469 439.699219 C 501.328125 446.21875 503.410156 450.40625 501.703125 452.863281 C 497.695312 458.617188 473.867188 453.449219 460.902344 437.828125 C 460.386719 437.183594 454.472656 429.863281 452.335938 420.171875 Z M 452.335938 420.171875 " fill-opacity="1" fill-rule="nonzero"/><path fill="#6b4f3c" d="M 488.363281 437.753906 C 491.460938 439.535156 493.152344 442.421875 492.121094 444.1875 C 491.105469 445.96875 487.757812 445.949219 484.65625 444.152344 C 482.914062 443.152344 481.628906 441.816406 481.007812 440.515625 C 483.535156 440.5 485.886719 439.609375 487.882812 437.488281 C 488.042969 437.578125 488.203125 437.667969 488.363281 437.753906 Z M 488.363281 437.753906 " fill-opacity="1" fill-rule="nonzero"/><path fill="#6b4f3c" d="M 400.832031 465.457031 C 400.832031 465.636719 400.796875 465.832031 400.726562 466.011719 C 399.976562 467.917969 396.292969 468.257812 392.460938 466.796875 C 388.8125 465.371094 386.355469 462.785156 386.835938 460.898438 C 390.449219 462.535156 395.0625 464.070312 400.832031 465.457031 Z M 400.832031 465.457031 " fill-opacity="1" fill-rule="nonzero"/><g clip-path="url(#id4)"><path fill="#c1a352" d="M 400.832031 465.457031 C 404.039062 466.242188 407.617188 466.992188 411.605469 467.703125 C 411.820312 468.664062 412.425781 471.285156 411.019531 473.136719 C 409.773438 474.757812 407.546875 474.988281 406.691406 475.078125 C 401.347656 475.648438 367.171875 472.800781 363.523438 451.597656 C 363.09375 449.105469 362.4375 442.65625 367.316406 434.101562 C 371.128906 434.566406 372.625 434.832031 374.15625 433.550781 C 377.34375 430.933594 376.488281 424.644531 375.207031 421.132812 C 374.671875 419.671875 373.957031 418.390625 373.140625 417.265625 C 370.929688 414.203125 367.992188 412.421875 366.210938 411.511719 C 367.246094 411.941406 368.3125 412.296875 369.433594 412.636719 C 369.703125 412.386719 370.984375 411.15625 372.980469 410.050781 C 372.980469 410.050781 386.691406 416.734375 379.335938 432.394531 C 373.886719 444.007812 370.628906 453.59375 386.835938 460.898438 C 386.355469 462.785156 388.8125 465.371094 392.460938 466.796875 C 396.292969 468.257812 399.976562 467.917969 400.726562 466.011719 C 400.796875 465.832031 400.832031 465.636719 400.832031 465.457031 Z M 400.832031 465.457031 " fill-opacity="1" fill-rule="nonzero"/></g><path fill="#b8d3cf" d="M 313.675781 413.503906 C 308.980469 411.390625 304.628906 408.996094 300.738281 406.378906 C 298.496094 404.875 297.242188 403.878906 296.175781 402.242188 C 294.769531 400.121094 294.085938 397.5625 294.140625 394.636719 C 294.15625 393.652344 293.375 392.839844 292.394531 392.820312 C 291.460938 392.828125 290.597656 393.585938 290.578125 394.570312 C 290.511719 398.230469 291.394531 401.472656 293.203125 404.199219 C 294.726562 406.535156 296.542969 407.855469 298.757812 409.335938 C 302.808594 412.0625 307.335938 414.554688 312.214844 416.75 C 312.453125 416.859375 312.699219 416.90625 312.945312 416.90625 C 313.625 416.90625 314.273438 416.515625 314.570312 415.855469 C 314.972656 414.960938 314.574219 413.90625 313.675781 413.503906 Z M 313.675781 413.503906 " fill-opacity="1" fill-rule="nonzero"/><path fill="#b8d3cf" d="M 319.421875 407.632812 C 317.277344 405.550781 314.96875 403.679688 312.566406 402.070312 C 311.75 401.519531 310.640625 401.738281 310.09375 402.558594 C 309.546875 403.375 309.761719 404.480469 310.582031 405.027344 C 312.808594 406.519531 314.945312 408.257812 316.925781 410.175781 C 318.492188 411.726562 319.902344 413.332031 321.121094 414.941406 C 321.472656 415.402344 322.003906 415.644531 322.542969 415.644531 C 322.917969 415.644531 323.292969 415.527344 323.617188 415.285156 C 324.402344 414.691406 324.554688 413.574219 323.960938 412.789062 C 322.640625 411.042969 321.117188 409.3125 319.421875 407.632812 Z M 319.421875 407.632812 " fill-opacity="1" fill-rule="nonzero"/><path fill="#c3ddda" d="M 317.058594 392.378906 C 317.496094 392.378906 317.929688 392.222656 318.273438 391.902344 C 319.347656 390.902344 321.15625 389.492188 323.652344 388.449219 C 325.125 387.835938 326.648438 387.414062 328.179688 387.195312 C 329.148438 387.054688 329.824219 386.152344 329.683594 385.175781 C 329.546875 384.203125 328.65625 383.53125 327.667969 383.667969 C 325.84375 383.929688 324.035156 384.429688 322.285156 385.160156 C 319.921875 386.148438 317.695312 387.574219 315.847656 389.292969 C 315.128906 389.960938 315.085938 391.089844 315.757812 391.808594 C 316.105469 392.1875 316.582031 392.378906 317.058594 392.378906 Z M 317.058594 392.378906 " fill-opacity="1" fill-rule="nonzero"/><path fill="#c3ddda" d="M 332.660156 391.144531 L 323.792969 392.304688 C 322.816406 392.433594 322.128906 393.328125 322.257812 394.300781 C 322.375 395.199219 323.140625 395.851562 324.019531 395.851562 C 324.097656 395.851562 324.175781 395.847656 324.253906 395.839844 L 333.125 394.679688 C 334.097656 394.550781 334.785156 393.65625 334.65625 392.683594 C 334.53125 391.707031 333.640625 391.011719 332.660156 391.144531 Z M 332.660156 391.144531 " fill-opacity="1" fill-rule="nonzero"/><g fill="#ffffff" fill-opacity="1"><g transform="translate(281.675545, 331.580043)"><g><path d="M 6.90625 -38.84375 C 9.570312 -42.007812 14.335938 -43.59375 21.203125 -43.59375 C 28.066406 -43.59375 32.84375 -42.007812 35.53125 -38.84375 C 38.21875 -35.675781 39.5625 -29.859375 39.5625 -21.390625 C 39.5625 -12.921875 38.21875 -7.101562 35.53125 -3.9375 C 32.84375 -0.769531 28.066406 0.8125 21.203125 0.8125 C 14.335938 0.8125 9.570312 -0.769531 6.90625 -3.9375 C 4.238281 -7.101562 2.90625 -12.921875 2.90625 -21.390625 C 2.90625 -29.859375 4.238281 -35.675781 6.90625 -38.84375 Z M 27.8125 -32.921875 C 26.632812 -34.941406 24.429688 -35.953125 21.203125 -35.953125 C 17.984375 -35.953125 15.78125 -34.941406 14.59375 -32.921875 C 13.414062 -30.898438 12.828125 -27.054688 12.828125 -21.390625 C 12.828125 -15.722656 13.414062 -11.875 14.59375 -9.84375 C 15.78125 -7.820312 17.984375 -6.8125 21.203125 -6.8125 C 24.429688 -6.8125 26.632812 -7.820312 27.8125 -9.84375 C 28.988281 -11.875 29.578125 -15.722656 29.578125 -21.390625 C 29.578125 -27.054688 28.988281 -30.898438 27.8125 -32.921875 Z M 27.8125 -32.921875 "/></g></g></g><g fill="#ffffff" fill-opacity="1"><g transform="translate(333.06816, 331.580043)"><g><path d="M 33.796875 -8 L 34.59375 -0.984375 C 30.875 0.171875 26.304688 0.75 20.890625 0.75 C 14.273438 0.75 9.625 -0.898438 6.9375 -4.203125 C 4.25 -7.515625 2.90625 -13.242188 2.90625 -21.390625 C 2.90625 -29.535156 4.25 -35.257812 6.9375 -38.5625 C 9.625 -41.875 14.273438 -43.53125 20.890625 -43.53125 C 25.691406 -43.53125 29.972656 -43.050781 33.734375 -42.09375 L 32.921875 -35.03125 C 29.578125 -35.238281 25.566406 -35.34375 20.890625 -35.34375 C 17.796875 -35.34375 15.675781 -34.359375 14.53125 -32.390625 C 13.394531 -30.429688 12.828125 -26.765625 12.828125 -21.390625 C 12.828125 -16.015625 13.394531 -12.34375 14.53125 -10.375 C 15.675781 -8.414062 17.796875 -7.4375 20.890625 -7.4375 C 26.640625 -7.4375 30.941406 -7.625 33.796875 -8 Z M 33.796875 -8 "/></g></g></g><g fill="#ffffff" fill-opacity="1"><g transform="translate(378.385554, 331.580043)"><g><path d="M 32.796875 -7.375 L 33.234375 -0.4375 C 29.347656 -0.0195312 22.734375 0.1875 13.390625 0.1875 C 10.535156 0.1875 8.257812 -0.585938 6.5625 -2.140625 C 4.875 -3.691406 4.007812 -5.789062 3.96875 -8.4375 L 3.96875 -34.34375 C 4.007812 -36.988281 4.875 -39.085938 6.5625 -40.640625 C 8.257812 -42.191406 10.535156 -42.96875 13.390625 -42.96875 C 22.734375 -42.96875 29.347656 -42.757812 33.234375 -42.34375 L 32.796875 -35.34375 L 16.375 -35.34375 C 15.332031 -35.34375 14.582031 -35.09375 14.125 -34.59375 C 13.675781 -34.101562 13.453125 -33.296875 13.453125 -32.171875 L 13.453125 -25.671875 L 30.5 -25.671875 L 30.5 -18.84375 L 13.453125 -18.84375 L 13.453125 -10.609375 C 13.453125 -9.441406 13.675781 -8.609375 14.125 -8.109375 C 14.582031 -7.617188 15.332031 -7.375 16.375 -7.375 Z M 32.796875 -7.375 "/></g></g></g><g fill="#ffffff" fill-opacity="1"><g transform="translate(423.083016, 331.580043)"><g><path d="M 27.53125 -11.21875 L 12.828125 -11.21875 L 9.734375 0 L 0.0625 0 L 12.40625 -40.296875 C 12.5625 -41.046875 12.953125 -41.644531 13.578125 -42.09375 C 14.203125 -42.550781 14.90625 -42.78125 15.6875 -42.78125 L 24.609375 -42.78125 C 26.390625 -42.78125 27.488281 -41.953125 27.90625 -40.296875 L 40.234375 0 L 30.625 0 Z M 25.484375 -18.53125 L 21.890625 -31.625 C 21.390625 -33.6875 21.097656 -35.03125 21.015625 -35.65625 L 19.34375 -35.65625 C 19.257812 -35.238281 19.113281 -34.570312 18.90625 -33.65625 C 18.695312 -32.75 18.53125 -32.070312 18.40625 -31.625 L 14.8125 -18.53125 Z M 25.484375 -18.53125 "/></g></g></g><g fill="#ffffff" fill-opacity="1"><g transform="translate(472.367911, 331.580043)"><g><path d="M 40.421875 -42.78125 L 40.421875 -3.40625 C 40.421875 -1.132812 39.304688 0 37.078125 0 L 31.1875 0 C 30.238281 0 29.492188 -0.210938 28.953125 -0.640625 C 28.410156 -1.078125 27.894531 -1.796875 27.40625 -2.796875 L 16.1875 -25.609375 C 14.78125 -28.617188 13.910156 -30.828125 13.578125 -32.234375 L 12.890625 -32.234375 C 13.179688 -30.171875 13.328125 -27.898438 13.328125 -25.421875 L 13.328125 0 L 4.34375 0 L 4.34375 -39.375 C 4.34375 -41.644531 5.476562 -42.78125 7.75 -42.78125 L 13.515625 -42.78125 C 14.460938 -42.78125 15.203125 -42.5625 15.734375 -42.125 C 16.273438 -41.695312 16.796875 -40.984375 17.296875 -39.984375 L 28.140625 -17.859375 C 29.179688 -15.785156 30.21875 -13.488281 31.25 -10.96875 L 31.875 -10.96875 C 31.625 -14.195312 31.5 -16.597656 31.5 -18.171875 L 31.5 -42.78125 Z M 40.421875 -42.78125 "/></g></g></g><g fill="#ffffff" fill-opacity="1"><g transform="translate(315.286657, 524.479482)"><g><path d="M 38.0625 0 L 28.09375 0 L 24.859375 -13.078125 C 24.441406 -14.441406 23.894531 -15.378906 23.21875 -15.890625 C 22.539062 -16.410156 21.5625 -16.671875 20.28125 -16.671875 L 13.640625 -16.734375 L 13.640625 0 L 4.34375 0 L 4.34375 -42.78125 C 8.1875 -43.15625 13.617188 -43.34375 20.640625 -43.34375 C 26.390625 -43.34375 30.460938 -42.429688 32.859375 -40.609375 C 35.253906 -38.785156 36.453125 -35.476562 36.453125 -30.6875 C 36.453125 -27.550781 35.820312 -25.09375 34.5625 -23.3125 C 33.300781 -21.53125 31.203125 -20.457031 28.265625 -20.09375 L 28.265625 -19.78125 C 31.535156 -19.03125 33.5625 -16.878906 34.34375 -13.328125 Z M 13.640625 -24 L 20.453125 -24 C 22.941406 -24 24.640625 -24.421875 25.546875 -25.265625 C 26.453125 -26.109375 26.90625 -27.707031 26.90625 -30.0625 C 26.90625 -32.425781 26.457031 -34.019531 25.5625 -34.84375 C 24.675781 -35.664062 22.972656 -36.078125 20.453125 -36.078125 L 13.640625 -36.015625 Z M 13.640625 -24 "/></g></g></g><g fill="#ffffff" fill-opacity="1"><g transform="translate(364.137597, 524.479482)"><g><path d="M 13.765625 0 L 4.34375 0 L 4.34375 -42.78125 L 13.765625 -42.78125 Z M 13.765625 0 "/></g></g></g><g fill="#ffffff" fill-opacity="1"><g transform="translate(391.229303, 524.479482)"><g><path d="M 20.15625 -16.1875 L 11.53125 -19.21875 C 8.351562 -20.375 6.082031 -21.941406 4.71875 -23.921875 C 3.351562 -25.910156 2.671875 -28.519531 2.671875 -31.75 C 2.671875 -36.457031 3.816406 -39.609375 6.109375 -41.203125 C 8.398438 -42.796875 12.441406 -43.59375 18.234375 -43.59375 C 23.679688 -43.59375 28.367188 -43.03125 32.296875 -41.90625 L 31.6875 -35.46875 C 28.082031 -35.59375 23.617188 -35.65625 18.296875 -35.65625 C 15.804688 -35.65625 14.148438 -35.4375 13.328125 -35 C 12.503906 -34.5625 12.09375 -33.476562 12.09375 -31.75 C 12.09375 -30.34375 12.398438 -29.328125 13.015625 -28.703125 C 13.640625 -28.085938 14.816406 -27.488281 16.546875 -26.90625 L 24.671875 -24.125 C 27.984375 -22.957031 30.320312 -21.375 31.6875 -19.375 C 33.050781 -17.375 33.734375 -14.757812 33.734375 -11.53125 C 33.734375 -6.738281 32.570312 -3.484375 30.25 -1.765625 C 27.9375 -0.046875 23.804688 0.8125 17.859375 0.8125 C 13.023438 0.8125 8.125 0.269531 3.15625 -0.8125 L 3.71875 -7.625 C 12.519531 -7.414062 17.234375 -7.3125 17.859375 -7.3125 C 20.378906 -7.3125 22.0625 -7.578125 22.90625 -8.109375 C 23.757812 -8.648438 24.1875 -9.769531 24.1875 -11.46875 C 24.1875 -12.914062 23.894531 -13.9375 23.3125 -14.53125 C 22.726562 -15.132812 21.675781 -15.6875 20.15625 -16.1875 Z M 20.15625 -16.1875 "/></g></g></g><g fill="#ffffff" fill-opacity="1"><g transform="translate(436.298721, 524.479482)"><g><path d="M 16.984375 -18.84375 L 13.328125 -18.84375 C 13.617188 -17.195312 13.765625 -15.832031 13.765625 -14.75 L 13.765625 0 L 4.34375 0 L 4.34375 -42.78125 L 13.765625 -42.78125 L 13.765625 -30.6875 C 13.765625 -28.875 13.617188 -27.179688 13.328125 -25.609375 L 16.984375 -25.609375 L 27.84375 -42.78125 L 38.0625 -42.78125 L 27.03125 -25.734375 C 26.332031 -24.492188 25.300781 -23.351562 23.9375 -22.3125 L 23.9375 -22.078125 C 25.414062 -21.035156 26.613281 -19.773438 27.53125 -18.296875 L 38.8125 0 L 28.265625 0 Z M 16.984375 -18.84375 "/></g></g></g></svg>